G04 DipTrace 3.1.0.1*
G04 09342-3_miskovichk_giordanom_0_1.gbl*
%MOIN*%
G04 #@! TF.FileFunction,Copper,L2,Bot*
G04 #@! TF.Part,Single*
G04 #@! TA.AperFunction,Conductor*
%ADD13C,0.012992*%
G04 #@! TA.AperFunction,CopperBalancing*
%ADD14C,0.025*%
G04 #@! TA.AperFunction,ComponentPad*
%ADD17R,0.066929X0.066929*%
%ADD18C,0.066929*%
G04 #@! TA.AperFunction,ViaPad*
%ADD21C,0.04*%
%FSLAX26Y26*%
G04*
G70*
G90*
G75*
G01*
G04 Bottom*
%LPD*%
X881500Y744000D2*
D13*
X594000D1*
X506500Y831500D1*
X956500Y744000D2*
X906500Y694000D1*
X544000D1*
X506500Y731500D1*
X694000Y906500D2*
X531500D1*
X506500Y931500D1*
D21*
X881500Y744000D3*
X956500D3*
X694000Y906500D3*
X446518Y1294131D2*
D14*
X1291507D1*
X568955Y1269262D2*
X1169034D1*
X568955Y1244394D2*
X1169034D1*
X568955Y1219525D2*
X1169034D1*
X568955Y1194656D2*
X1169034D1*
X446518Y1169787D2*
X457829D1*
X555139D2*
X1182849D1*
X1280143D2*
X1291507D1*
X567448Y1144919D2*
X1170541D1*
X567878Y1120050D2*
X1170147D1*
X446518Y1095181D2*
X456252D1*
X556718D2*
X1181270D1*
X1281722D2*
X1291507D1*
X446518Y1070312D2*
X458260D1*
X554709D2*
X1183280D1*
X1279713D2*
X1291507D1*
X567304Y1045444D2*
X1170685D1*
X567950Y1020575D2*
X1170038D1*
X446518Y995706D2*
X455894D1*
X557113D2*
X1180875D1*
X1282117D2*
X1291507D1*
X446518Y970837D2*
X458761D1*
X554243D2*
X1183747D1*
X1279247D2*
X1291507D1*
X567197Y945969D2*
X666907D1*
X721104D2*
X1170793D1*
X740660Y921100D2*
X1169930D1*
X446518Y896231D2*
X455535D1*
X741845D2*
X1180517D1*
X1282512D2*
X1291501D1*
X446518Y871362D2*
X459192D1*
X553811D2*
X661058D1*
X726953D2*
X1184213D1*
X1278780D2*
X1291507D1*
X567052Y846493D2*
X1170936D1*
X568130Y821625D2*
X1169860D1*
X446518Y796756D2*
X455105D1*
X590413D2*
X1180122D1*
X1282870D2*
X1291516D1*
X446518Y771887D2*
X459693D1*
X996192D2*
X1184680D1*
X1278314D2*
X1291507D1*
X1005415Y747018D2*
X1171079D1*
X1000031Y722150D2*
X1169752D1*
X446518Y697281D2*
X454747D1*
X958944D2*
X1179764D1*
X1283230D2*
X1291534D1*
X446518Y672412D2*
X460177D1*
X934076D2*
X1185146D1*
X1277846D2*
X1291507D1*
X566766Y647543D2*
X1171223D1*
X568308Y622675D2*
X1169680D1*
X446518Y597806D2*
X454387D1*
X558621D2*
X1179404D1*
X1283588D2*
X1291487D1*
X446518Y572937D2*
X460644D1*
X552340D2*
X1185648D1*
X1277345D2*
X1291507D1*
X566622Y548068D2*
X1171366D1*
X568381Y523199D2*
X1169608D1*
X446518Y498331D2*
X454029D1*
X558944D2*
X1179046D1*
X1283948D2*
X1291510D1*
X446518Y473462D2*
X488921D1*
X524064D2*
X1213925D1*
X1249068D2*
X1291507D1*
X446518Y448593D2*
X1291507D1*
X455722Y1291465D2*
X566465D1*
Y1171535D1*
X551142D1*
X555012Y1166747D1*
X559929Y1158723D1*
X563530Y1150030D1*
X565726Y1140881D1*
X566465Y1131500D1*
X565726Y1122119D1*
X563530Y1112970D1*
X559929Y1104277D1*
X555012Y1096253D1*
X548902Y1089098D1*
X541747Y1082988D1*
X539559Y1081526D1*
X545444Y1077097D1*
X552097Y1070444D1*
X557629Y1062832D1*
X561900Y1054448D1*
X564807Y1045499D1*
X566280Y1036205D1*
Y1026795D1*
X564807Y1017501D1*
X561900Y1008552D1*
X557629Y1000168D1*
X552097Y992556D1*
X545444Y985903D1*
X539559Y981526D1*
X545444Y977097D1*
X552097Y970444D1*
X557629Y962832D1*
X561900Y954448D1*
X564807Y945499D1*
X565888Y939510D1*
X661222Y939496D1*
X666668Y944119D1*
X672890Y947932D1*
X679631Y950724D1*
X686726Y952428D1*
X694000Y953000D1*
X701274Y952428D1*
X708369Y950724D1*
X715110Y947932D1*
X721332Y944119D1*
X726881Y939381D1*
X731619Y933832D1*
X735432Y927610D1*
X738224Y920869D1*
X739928Y913774D1*
X740500Y906500D1*
X739928Y899226D1*
X738224Y892131D1*
X735432Y885390D1*
X731619Y879168D1*
X726881Y873619D1*
X721332Y868881D1*
X715110Y865068D1*
X708369Y862276D1*
X701274Y860572D1*
X694000Y860000D1*
X686726Y860572D1*
X679631Y862276D1*
X672890Y865068D1*
X666668Y868881D1*
X661235Y873513D1*
X549280Y873504D1*
X555012Y866747D1*
X559929Y858723D1*
X563530Y850030D1*
X565726Y840881D1*
X566465Y831500D1*
X565726Y822119D1*
X565199Y819467D1*
X607654Y777010D1*
X848741Y776996D1*
X854168Y781619D1*
X860390Y785432D1*
X867131Y788224D1*
X874226Y789928D1*
X881500Y790500D1*
X888774Y789928D1*
X895869Y788224D1*
X902610Y785432D1*
X908832Y781619D1*
X914381Y776881D1*
X918987Y771500D1*
X923619Y776881D1*
X929168Y781619D1*
X935390Y785432D1*
X942131Y788224D1*
X949226Y789928D1*
X956500Y790500D1*
X963774Y789928D1*
X970869Y788224D1*
X977610Y785432D1*
X983832Y781619D1*
X989381Y776881D1*
X994119Y771332D1*
X997932Y765110D1*
X1000724Y758369D1*
X1002428Y751274D1*
X1003000Y744000D1*
X1002428Y736726D1*
X1000724Y729631D1*
X997932Y722890D1*
X994119Y716668D1*
X989381Y711119D1*
X983832Y706381D1*
X977610Y702568D1*
X970869Y699776D1*
X963774Y698072D1*
X956656Y697507D1*
X927929Y668909D1*
X923740Y665866D1*
X919127Y663516D1*
X914203Y661916D1*
X909089Y661105D1*
X842196Y661004D1*
X558675D1*
X561900Y654448D1*
X564807Y645499D1*
X566280Y636205D1*
Y626795D1*
X564807Y617501D1*
X561900Y608552D1*
X557629Y600168D1*
X552097Y592556D1*
X545444Y585903D1*
X539559Y581526D1*
X545444Y577097D1*
X552097Y570444D1*
X557629Y562832D1*
X561900Y554448D1*
X564807Y545499D1*
X566280Y536205D1*
Y526795D1*
X564807Y517501D1*
X561900Y508552D1*
X557629Y500168D1*
X552097Y492556D1*
X545444Y485903D1*
X537832Y480371D1*
X529448Y476100D1*
X520499Y473193D1*
X511205Y471720D1*
X501795D1*
X492501Y473193D1*
X483552Y476100D1*
X475168Y480371D1*
X467556Y485903D1*
X460903Y492556D1*
X455371Y500168D1*
X451100Y508552D1*
X448193Y517501D1*
X446720Y526795D1*
Y536205D1*
X448193Y545499D1*
X451100Y554448D1*
X455371Y562832D1*
X460903Y570444D1*
X467556Y577097D1*
X473441Y581474D1*
X467556Y585903D1*
X460903Y592556D1*
X455371Y600168D1*
X451100Y608552D1*
X448193Y617501D1*
X446720Y626795D1*
Y636205D1*
X448193Y645499D1*
X451100Y654448D1*
X455371Y662832D1*
X460903Y670444D1*
X467556Y677097D1*
X473441Y681474D1*
X467556Y685903D1*
X460903Y692556D1*
X455371Y700168D1*
X451100Y708552D1*
X448193Y717501D1*
X446720Y726795D1*
Y736205D1*
X448193Y745499D1*
X451100Y754448D1*
X455371Y762832D1*
X460903Y770444D1*
X467556Y777097D1*
X473441Y781474D1*
X467556Y785903D1*
X460903Y792556D1*
X455371Y800168D1*
X451100Y808552D1*
X448193Y817501D1*
X446720Y826795D1*
Y836205D1*
X448193Y845499D1*
X451100Y854448D1*
X455371Y862832D1*
X460903Y870444D1*
X467556Y877097D1*
X473441Y881474D1*
X467556Y885903D1*
X460903Y892556D1*
X455371Y900168D1*
X451100Y908552D1*
X448193Y917501D1*
X446720Y926795D1*
Y936205D1*
X448193Y945499D1*
X451100Y954448D1*
X455371Y962832D1*
X460903Y970444D1*
X467556Y977097D1*
X473441Y981474D1*
X467556Y985903D1*
X460903Y992556D1*
X455371Y1000168D1*
X451100Y1008552D1*
X448193Y1017501D1*
X446720Y1026795D1*
Y1036205D1*
X448193Y1045499D1*
X451100Y1054448D1*
X455371Y1062832D1*
X460903Y1070444D1*
X467556Y1077097D1*
X473441Y1081474D1*
X467556Y1085903D1*
X460903Y1092556D1*
X455371Y1100168D1*
X451100Y1108552D1*
X448193Y1117501D1*
X446720Y1126795D1*
Y1136205D1*
X448193Y1145499D1*
X451100Y1154448D1*
X455371Y1162832D1*
X460903Y1170444D1*
X461913Y1171538D1*
X446535Y1171535D1*
Y1291465D1*
X455722D1*
X1180722D2*
X1291465D1*
Y1171535D1*
X1276142D1*
X1280012Y1166747D1*
X1284929Y1158723D1*
X1288530Y1150030D1*
X1290726Y1140881D1*
X1291465Y1131500D1*
X1290726Y1122119D1*
X1288530Y1112970D1*
X1284929Y1104277D1*
X1280012Y1096253D1*
X1273902Y1089098D1*
X1266747Y1082988D1*
X1264559Y1081526D1*
X1270444Y1077097D1*
X1277097Y1070444D1*
X1282629Y1062832D1*
X1286900Y1054448D1*
X1289807Y1045499D1*
X1291280Y1036205D1*
Y1026795D1*
X1289807Y1017501D1*
X1286900Y1008552D1*
X1282629Y1000168D1*
X1277097Y992556D1*
X1270444Y985903D1*
X1264559Y981526D1*
X1270444Y977097D1*
X1277097Y970444D1*
X1282629Y962832D1*
X1286900Y954448D1*
X1289807Y945499D1*
X1291280Y936205D1*
Y926795D1*
X1289807Y917501D1*
X1286900Y908552D1*
X1282629Y900168D1*
X1277097Y892556D1*
X1270444Y885903D1*
X1264559Y881526D1*
X1270444Y877097D1*
X1277097Y870444D1*
X1282629Y862832D1*
X1286900Y854448D1*
X1289807Y845499D1*
X1291280Y836205D1*
Y826795D1*
X1289807Y817501D1*
X1286900Y808552D1*
X1282629Y800168D1*
X1277097Y792556D1*
X1270444Y785903D1*
X1264559Y781526D1*
X1270444Y777097D1*
X1277097Y770444D1*
X1282629Y762832D1*
X1286900Y754448D1*
X1289807Y745499D1*
X1291280Y736205D1*
Y726795D1*
X1289807Y717501D1*
X1286900Y708552D1*
X1282629Y700168D1*
X1277097Y692556D1*
X1270444Y685903D1*
X1264559Y681526D1*
X1270444Y677097D1*
X1277097Y670444D1*
X1282629Y662832D1*
X1286900Y654448D1*
X1289807Y645499D1*
X1291280Y636205D1*
Y626795D1*
X1289807Y617501D1*
X1286900Y608552D1*
X1282629Y600168D1*
X1277097Y592556D1*
X1270444Y585903D1*
X1264559Y581526D1*
X1270444Y577097D1*
X1277097Y570444D1*
X1282629Y562832D1*
X1286900Y554448D1*
X1289807Y545499D1*
X1291280Y536205D1*
Y526795D1*
X1289807Y517501D1*
X1286900Y508552D1*
X1282629Y500168D1*
X1277097Y492556D1*
X1270444Y485903D1*
X1262832Y480371D1*
X1254448Y476100D1*
X1245499Y473193D1*
X1236205Y471720D1*
X1226795D1*
X1217501Y473193D1*
X1208552Y476100D1*
X1200168Y480371D1*
X1192556Y485903D1*
X1185903Y492556D1*
X1180371Y500168D1*
X1176100Y508552D1*
X1173193Y517501D1*
X1171720Y526795D1*
Y536205D1*
X1173193Y545499D1*
X1176100Y554448D1*
X1180371Y562832D1*
X1185903Y570444D1*
X1192556Y577097D1*
X1198441Y581474D1*
X1192556Y585903D1*
X1185903Y592556D1*
X1180371Y600168D1*
X1176100Y608552D1*
X1173193Y617501D1*
X1171720Y626795D1*
Y636205D1*
X1173193Y645499D1*
X1176100Y654448D1*
X1180371Y662832D1*
X1185903Y670444D1*
X1192556Y677097D1*
X1198441Y681474D1*
X1192556Y685903D1*
X1185903Y692556D1*
X1180371Y700168D1*
X1176100Y708552D1*
X1173193Y717501D1*
X1171720Y726795D1*
Y736205D1*
X1173193Y745499D1*
X1176100Y754448D1*
X1180371Y762832D1*
X1185903Y770444D1*
X1192556Y777097D1*
X1198441Y781474D1*
X1192556Y785903D1*
X1185903Y792556D1*
X1180371Y800168D1*
X1176100Y808552D1*
X1173193Y817501D1*
X1171720Y826795D1*
Y836205D1*
X1173193Y845499D1*
X1176100Y854448D1*
X1180371Y862832D1*
X1185903Y870444D1*
X1192556Y877097D1*
X1198441Y881474D1*
X1192556Y885903D1*
X1185903Y892556D1*
X1180371Y900168D1*
X1176100Y908552D1*
X1173193Y917501D1*
X1171720Y926795D1*
Y936205D1*
X1173193Y945499D1*
X1176100Y954448D1*
X1180371Y962832D1*
X1185903Y970444D1*
X1192556Y977097D1*
X1198441Y981474D1*
X1192556Y985903D1*
X1185903Y992556D1*
X1180371Y1000168D1*
X1176100Y1008552D1*
X1173193Y1017501D1*
X1171720Y1026795D1*
Y1036205D1*
X1173193Y1045499D1*
X1176100Y1054448D1*
X1180371Y1062832D1*
X1185903Y1070444D1*
X1192556Y1077097D1*
X1198441Y1081474D1*
X1192556Y1085903D1*
X1185903Y1092556D1*
X1180371Y1100168D1*
X1176100Y1108552D1*
X1173193Y1117501D1*
X1171720Y1126795D1*
Y1136205D1*
X1173193Y1145499D1*
X1176100Y1154448D1*
X1180371Y1162832D1*
X1185903Y1170444D1*
X1186913Y1171538D1*
X1171535Y1171535D1*
Y1291465D1*
X1180722D1*
X1293976Y1319000D2*
X444024D1*
X444000Y444022D1*
X1293976Y444000D1*
X1294000Y1319024D1*
D17*
X506500Y1231500D3*
D18*
Y1131500D3*
Y1031500D3*
Y931500D3*
Y831500D3*
Y731500D3*
Y631500D3*
Y531500D3*
D17*
X1231500Y1231500D3*
D18*
Y1131500D3*
Y1031500D3*
Y931500D3*
Y831500D3*
Y731500D3*
Y631500D3*
Y531500D3*
M02*
