G04 DipTrace 3.1.0.1*
G04 09342-3_miskovichk_giordanom_0_1.gtl*
%MOIN*%
G04 #@! TF.FileFunction,Copper,L1,Top*
G04 #@! TF.Part,Single*
G04 #@! TA.AperFunction,Conductor*
%ADD13C,0.012992*%
%ADD15R,0.051181X0.059055*%
%ADD16R,0.059055X0.051181*%
G04 #@! TA.AperFunction,ComponentPad*
%ADD17R,0.066929X0.066929*%
%ADD18C,0.066929*%
%ADD19R,0.070866X0.015748*%
%ADD20R,0.098425X0.137795*%
G04 #@! TA.AperFunction,ViaPad*
%ADD21C,0.04*%
%FSLAX26Y26*%
G04*
G70*
G90*
G75*
G01*
G04 Top*
%LPD*%
X756500Y554138D2*
D13*
X671362D1*
X594000Y631500D1*
Y744000D1*
X506500Y831500D1*
X769000Y831697D2*
X881303D1*
X881500Y831500D1*
Y994000D2*
Y831500D1*
Y744000D1*
X756500Y528547D2*
X646953D1*
X569000Y606500D1*
Y656500D1*
X506500Y719000D1*
Y731500D1*
X956303Y831500D2*
Y994000D1*
Y1031697D1*
X906500Y1081500D1*
X781697D1*
X769000Y1068803D1*
X956303Y831500D2*
Y744197D1*
X956500Y744000D1*
X506500Y931500D2*
Y906500D1*
X619000Y794000D1*
Y644000D1*
X681500Y581500D1*
X754728D1*
X756500Y579728D1*
X769000Y906500D2*
Y994000D1*
Y906500D2*
X694000D1*
X756500Y656500D2*
X731500D1*
X694000Y694000D1*
Y831500D1*
X631500Y894000D1*
Y1106500D1*
X506500Y1231500D1*
Y1131500D2*
Y1106500D1*
X606500Y1006500D1*
Y881500D1*
X669000Y819000D1*
Y681500D1*
X719000Y631500D1*
X755909D1*
X756500Y630909D1*
X984846Y605319D2*
X1042819D1*
X1081500Y644000D1*
Y881500D1*
X1231500Y1031500D1*
X984846Y630909D2*
X1030909D1*
X1056500Y656500D1*
Y956500D1*
X1231500Y1131500D1*
X984846Y656500D2*
X1006500D1*
Y1006500D1*
X1231500Y1231500D1*
X984854Y477366D2*
X1177366D1*
X1231500Y531500D1*
X984846Y502957D2*
X1127957D1*
X1256500Y631500D1*
X1231500D1*
X984846Y528547D2*
X1103547D1*
X1156500Y581500D1*
Y631500D1*
X1231500Y706500D1*
Y731500D1*
X984846Y554138D2*
X1079138D1*
X1131500Y606500D1*
Y731500D1*
X1231500Y831500D1*
X984846Y579728D2*
X1054728D1*
X1106500Y631500D1*
Y806500D1*
X1231500Y931500D1*
X756500Y477366D2*
X560634D1*
X506500Y531500D1*
X756500Y502957D2*
X610043D1*
X481500Y631500D1*
X506500D1*
X756500Y605319D2*
X695181D1*
X644000Y656500D1*
Y806500D1*
X581500Y869000D1*
Y931500D1*
X481500Y1031500D1*
X506500D1*
D21*
X881500Y744000D3*
X956500D3*
X694000Y906500D3*
D15*
X881500Y994000D3*
X956303D3*
X881500Y831500D3*
X956303D3*
D16*
X769000Y994000D3*
Y1068803D3*
D17*
X506500Y1231500D3*
D18*
Y1131500D3*
Y1031500D3*
Y931500D3*
Y831500D3*
Y731500D3*
Y631500D3*
Y531500D3*
D17*
X1231500Y1231500D3*
D18*
Y1131500D3*
Y1031500D3*
Y931500D3*
Y831500D3*
Y731500D3*
Y631500D3*
Y531500D3*
D16*
X769000Y906500D3*
Y831697D3*
D19*
X756500Y656500D3*
Y630909D3*
Y605319D3*
Y579728D3*
Y554138D3*
Y528547D3*
Y502957D3*
Y477366D3*
X984854D3*
X984846Y502957D3*
Y528547D3*
Y554138D3*
Y579728D3*
Y605319D3*
Y630909D3*
Y656500D3*
D20*
X870677Y566933D3*
M02*
